<svg width="7" height="11" viewBox="0 0 7 11" fill="none" xmlns="http://www.w3.org/2000/svg">
<path d="M1.49999 5.49999L0.792882 4.79288C0.402357 5.18341 0.402357 5.81657 0.792882 6.2071L1.49999 5.49999ZM5.29289 10.7071C5.68342 11.0976 6.31658 11.0976 6.70711 10.7071C7.09763 10.3166 7.09763 9.68342 6.70711 9.29289L5.29289 10.7071ZM6.70711 1.70708C7.09763 1.31656 7.09763 0.683394 6.70711 0.29287C6.31658 -0.0976541 5.68342 -0.0976541 5.29289 0.29287L6.70711 1.70708ZM6.70711 9.29289L2.2071 4.79288L0.792882 6.2071L5.29289 10.7071L6.70711 9.29289ZM5.29289 0.29287L0.792882 4.79288L2.2071 6.2071L6.70711 1.70708L5.29289 0.29287Z" fill="black"/>
</svg>
