<svg width="146" height="206" viewBox="0 0 146 206" fill="none" xmlns="http://www.w3.org/2000/svg">
<path d="M135.014 176.67C115.117 215.548 36.7143 207.566 0 198.715V28.8736C64.8067 -20.0246 117.012 42.9017 135.014 80.4772C143.304 96.3424 154.911 137.792 135.014 176.67Z" fill="#FB9300" fill-opacity="0.5"/>
<path d="M135.014 176.67C115.117 215.548 36.7143 207.566 0 198.715V28.8736C64.8067 -20.0246 117.012 42.9017 135.014 80.4772C143.304 96.3424 154.911 137.792 135.014 176.67Z" fill="url(#paint0_linear)"/>
<path d="M123 165.338C109 204.138 53.8333 196.171 28 187.338V17.8377C73.6 -30.9623 110.333 31.8377 123 69.3377C128.833 85.171 137 126.538 123 165.338Z" fill="#FB9300"/>
<path d="M123 165.338C109 204.138 53.8333 196.171 28 187.338V17.8377C73.6 -30.9623 110.333 31.8377 123 69.3377C128.833 85.171 137 126.538 123 165.338Z" fill="url(#paint1_linear)"/>
<defs>
<linearGradient id="paint0_linear" x1="-128.619" y1="23.0242" x2="57.4881" y2="272.664" gradientUnits="userSpaceOnUse">
<stop stop-color="white"/>
<stop offset="1" stop-color="white" stop-opacity="0"/>
</linearGradient>
<linearGradient id="paint1_linear" x1="-62.5" y1="12" x2="131" y2="195" gradientUnits="userSpaceOnUse">
<stop stop-color="white"/>
<stop offset="1" stop-color="white" stop-opacity="0"/>
</linearGradient>
</defs>
</svg>
